<mxfile host="Electron" agent="Mozilla/5.0 (Windows NT 10.0; Win64; x64) AppleWebKit/537.36 (KHTML, like Gecko) draw.io/24.7.17 Chrome/128.0.6613.36 Electron/32.0.1 Safari/537.36" version="24.7.17">
  <diagram name="Страница — 1" id="VAGySLi9Ga8m6sCz4T4p">
    <mxGraphModel dx="1436" dy="844" grid="1" gridSize="10" guides="1" tooltips="1" connect="1" arrows="1" fold="1" page="1" pageScale="1" pageWidth="1169" pageHeight="1654" math="0" shadow="0">
      <root>
        <mxCell id="0" />
        <mxCell id="1" parent="0" />
        <mxCell id="sTbQmlNYuC_geB2QO9-h-3" style="edgeStyle=orthogonalEdgeStyle;rounded=0;orthogonalLoop=1;jettySize=auto;html=1;entryX=0.5;entryY=0;entryDx=0;entryDy=0;" edge="1" parent="1" source="sTbQmlNYuC_geB2QO9-h-1" target="sTbQmlNYuC_geB2QO9-h-2">
          <mxGeometry relative="1" as="geometry" />
        </mxCell>
        <mxCell id="sTbQmlNYuC_geB2QO9-h-1" value="&lt;font color=&quot;#ff3333&quot;&gt;Start&lt;/font&gt;" style="ellipse;whiteSpace=wrap;html=1;" vertex="1" parent="1">
          <mxGeometry x="525" y="20" width="120" height="80" as="geometry" />
        </mxCell>
        <mxCell id="sTbQmlNYuC_geB2QO9-h-5" style="edgeStyle=orthogonalEdgeStyle;rounded=0;orthogonalLoop=1;jettySize=auto;html=1;" edge="1" parent="1" source="sTbQmlNYuC_geB2QO9-h-2" target="sTbQmlNYuC_geB2QO9-h-4">
          <mxGeometry relative="1" as="geometry" />
        </mxCell>
        <mxCell id="sTbQmlNYuC_geB2QO9-h-2" value="epsilon=0.0001&lt;div&gt;a=0.1;&lt;/div&gt;&lt;div&gt;b=0.8;&lt;/div&gt;&lt;div&gt;int n=50;&lt;/div&gt;&lt;div&gt;int k=10;&lt;/div&gt;&lt;div&gt;step=(b-a)/k&lt;/div&gt;" style="rounded=0;whiteSpace=wrap;html=1;" vertex="1" parent="1">
          <mxGeometry x="515" y="130" width="140" height="90" as="geometry" />
        </mxCell>
        <mxCell id="sTbQmlNYuC_geB2QO9-h-7" style="edgeStyle=orthogonalEdgeStyle;rounded=0;orthogonalLoop=1;jettySize=auto;html=1;" edge="1" parent="1" source="sTbQmlNYuC_geB2QO9-h-4" target="sTbQmlNYuC_geB2QO9-h-6">
          <mxGeometry relative="1" as="geometry" />
        </mxCell>
        <mxCell id="sTbQmlNYuC_geB2QO9-h-4" value="Function Value&amp;nbsp; &amp;nbsp;&lt;span style=&quot;background-color: initial;&quot;&gt;Ser. with n&amp;nbsp; &amp;nbsp;&lt;/span&gt;&lt;span style=&quot;background-color: initial;&quot;&gt;Ser. with epsilon&lt;/span&gt;" style="shape=parallelogram;perimeter=parallelogramPerimeter;whiteSpace=wrap;html=1;fixedSize=1;" vertex="1" parent="1">
          <mxGeometry x="443.13" y="250" width="283.75" height="40" as="geometry" />
        </mxCell>
        <mxCell id="sTbQmlNYuC_geB2QO9-h-10" style="edgeStyle=orthogonalEdgeStyle;rounded=0;orthogonalLoop=1;jettySize=auto;html=1;entryX=0.5;entryY=0;entryDx=0;entryDy=0;" edge="1" parent="1" source="sTbQmlNYuC_geB2QO9-h-6" target="sTbQmlNYuC_geB2QO9-h-8">
          <mxGeometry relative="1" as="geometry" />
        </mxCell>
        <mxCell id="sTbQmlNYuC_geB2QO9-h-6" value="x=a;x&amp;lt;=b;x+=step" style="rhombus;whiteSpace=wrap;html=1;" vertex="1" parent="1">
          <mxGeometry x="505.01" y="320" width="160" height="80" as="geometry" />
        </mxCell>
        <mxCell id="sTbQmlNYuC_geB2QO9-h-11" style="edgeStyle=orthogonalEdgeStyle;rounded=0;orthogonalLoop=1;jettySize=auto;html=1;entryX=0.5;entryY=0;entryDx=0;entryDy=0;" edge="1" parent="1" source="sTbQmlNYuC_geB2QO9-h-8" target="sTbQmlNYuC_geB2QO9-h-9">
          <mxGeometry relative="1" as="geometry" />
        </mxCell>
        <mxCell id="sTbQmlNYuC_geB2QO9-h-8" value="initial_function(x)" style="shape=process;whiteSpace=wrap;html=1;backgroundOutline=1;" vertex="1" parent="1">
          <mxGeometry x="490.01" y="430" width="190" height="50" as="geometry" />
        </mxCell>
        <mxCell id="sTbQmlNYuC_geB2QO9-h-13" style="edgeStyle=orthogonalEdgeStyle;rounded=0;orthogonalLoop=1;jettySize=auto;html=1;entryX=0.5;entryY=0;entryDx=0;entryDy=0;" edge="1" parent="1" source="sTbQmlNYuC_geB2QO9-h-9" target="sTbQmlNYuC_geB2QO9-h-12">
          <mxGeometry relative="1" as="geometry" />
        </mxCell>
        <mxCell id="sTbQmlNYuC_geB2QO9-h-9" value="sum_w_fixed_n(x,n)" style="shape=process;whiteSpace=wrap;html=1;backgroundOutline=1;" vertex="1" parent="1">
          <mxGeometry x="490" y="510" width="190" height="50" as="geometry" />
        </mxCell>
        <mxCell id="sTbQmlNYuC_geB2QO9-h-16" style="edgeStyle=orthogonalEdgeStyle;rounded=0;orthogonalLoop=1;jettySize=auto;html=1;entryX=0.5;entryY=0;entryDx=0;entryDy=0;" edge="1" parent="1" source="sTbQmlNYuC_geB2QO9-h-12" target="sTbQmlNYuC_geB2QO9-h-15">
          <mxGeometry relative="1" as="geometry" />
        </mxCell>
        <mxCell id="sTbQmlNYuC_geB2QO9-h-12" value="sum_w_epsilon(x,epsilon)" style="shape=process;whiteSpace=wrap;html=1;backgroundOutline=1;" vertex="1" parent="1">
          <mxGeometry x="490.01" y="590" width="190" height="50" as="geometry" />
        </mxCell>
        <mxCell id="sTbQmlNYuC_geB2QO9-h-17" style="edgeStyle=orthogonalEdgeStyle;rounded=0;orthogonalLoop=1;jettySize=auto;html=1;entryX=1;entryY=0.5;entryDx=0;entryDy=0;" edge="1" parent="1" source="sTbQmlNYuC_geB2QO9-h-15" target="sTbQmlNYuC_geB2QO9-h-6">
          <mxGeometry relative="1" as="geometry">
            <Array as="points">
              <mxPoint x="710" y="695" />
              <mxPoint x="710" y="360" />
            </Array>
          </mxGeometry>
        </mxCell>
        <mxCell id="sTbQmlNYuC_geB2QO9-h-20" value="true" style="edgeLabel;html=1;align=center;verticalAlign=middle;resizable=0;points=[];" vertex="1" connectable="0" parent="sTbQmlNYuC_geB2QO9-h-17">
          <mxGeometry x="-0.8761" y="-1" relative="1" as="geometry">
            <mxPoint as="offset" />
          </mxGeometry>
        </mxCell>
        <mxCell id="sTbQmlNYuC_geB2QO9-h-24" style="edgeStyle=orthogonalEdgeStyle;rounded=0;orthogonalLoop=1;jettySize=auto;html=1;" edge="1" parent="1" source="sTbQmlNYuC_geB2QO9-h-15" target="sTbQmlNYuC_geB2QO9-h-23">
          <mxGeometry relative="1" as="geometry" />
        </mxCell>
        <mxCell id="sTbQmlNYuC_geB2QO9-h-15" value="3 values of functions" style="shape=parallelogram;perimeter=parallelogramPerimeter;whiteSpace=wrap;html=1;fixedSize=1;" vertex="1" parent="1">
          <mxGeometry x="497.51" y="670" width="175" height="50" as="geometry" />
        </mxCell>
        <mxCell id="sTbQmlNYuC_geB2QO9-h-23" value="&lt;font color=&quot;#ff3333&quot;&gt;End&lt;/font&gt;" style="ellipse;whiteSpace=wrap;html=1;" vertex="1" parent="1">
          <mxGeometry x="525" y="747" width="120" height="80" as="geometry" />
        </mxCell>
      </root>
    </mxGraphModel>
  </diagram>
</mxfile>
